<?xml version="1.0" standalone="no"?>
<!DOCTYPE svg PUBLIC "-//W3C//DTD SVG 20010904//EN"
 "http://www.w3.org/TR/2001/REC-SVG-20010904/DTD/svg10.dtd">
<svg version="1.0" xmlns="http://www.w3.org/2000/svg"
 width="200.000000pt" height="200.000000pt" viewBox="0 0 200.000000 200.000000"
 preserveAspectRatio="xMidYMid meet">
<metadata>
Created by potrace 1.14, written by Peter Selinger 2001-2017
</metadata>
<g transform="translate(0.000000,200.000000) scale(0.100000,-0.100000)"
fill="#000000" stroke="none">
<path d="M0 1000 l0 -1000 1000 0 1000 0 0 1000 0 1000 -1000 0 -1000 0 0
-1000z m884 695 c-19 -29 -29 -27 -19 4 3 12 13 21 21 21 12 0 12 -4 -2 -25z
m75 -40 c-29 -36 -54 -63 -56 -62 -6 7 20 72 39 100 12 17 28 27 44 27 23 0
22 -3 -27 -65z m171 38 c-19 -14 -70 -61 -112 -104 -66 -67 -75 -73 -66 -46
14 42 42 82 92 135 34 36 46 42 81 42 l40 0 -35 -27z m-120 -436 l211 -437 -3
-78 -3 -77 -204 490 c-248 593 -235 562 -223 550 6 -5 106 -207 222 -448z
m210 399 c0 -16 -12 -31 -40 -50 -23 -15 -74 -59 -115 -98 -81 -76 -95 -73
-40 9 35 52 91 103 155 142 43 26 40 26 40 -3z m0 -121 c0 -15 -8 -29 -21 -36
-12 -6 -55 -40 -95 -75 -41 -36 -74 -61 -74 -56 0 23 69 109 119 148 31 24 59
44 64 44 4 0 7 -11 7 -25z m-395 -73 c-7 -8 -45 10 -40 19 4 5 14 3 25 -3 11
-7 17 -14 15 -16z m395 -47 c0 -14 -3 -25 -8 -25 -4 0 -36 -25 -70 -55 -35
-30 -66 -55 -68 -55 -15 0 47 88 85 121 51 46 61 48 61 14z m-360 -33 c3 -2
-13 -1 -35 3 -46 8 -49 10 -40 24 5 10 57 -9 75 -27z m-6 -57 c45 -19 46 -26
4 -19 -66 11 -78 15 -78 24 0 15 32 12 74 -5z m366 -23 c0 -10 -25 -40 -55
-66 -30 -26 -55 -43 -55 -39 0 20 85 123 102 123 4 0 8 -8 8 -18z m-362 -47
c53 -16 78 -34 39 -29 -12 2 -43 6 -69 9 -32 4 -48 11 -48 21 0 18 14 18 78
-1z m362 -72 c0 -10 -16 -31 -36 -47 -34 -27 -35 -27 -24 -5 12 23 50 69 57
69 2 0 3 -8 3 -17z m-303 -18 c38 -14 37 -14 -47 -12 -74 2 -85 4 -88 21 -4
17 1 18 46 12 28 -3 68 -13 89 -21z m28 -78 c38 -11 35 -12 -59 -15 -54 -1
-101 -1 -104 2 -2 3 -2 13 2 22 5 14 15 15 64 9 31 -3 75 -12 97 -18z m261
-45 c-18 -16 -18 -16 -6 6 6 13 14 21 18 18 3 -4 -2 -14 -12 -24z m-211 -40
c16 -9 4 -11 -60 -12 -44 0 -97 -3 -117 -6 -35 -6 -38 -5 -38 16 0 22 1 23 98
18 54 -3 107 -10 117 -16z m7 -74 l53 -12 -95 -7 c-52 -3 -114 -10 -138 -14
-38 -6 -42 -5 -42 13 0 15 8 22 28 25 58 9 143 6 194 -5z m63 -89 c14 -5 3 -8
-35 -9 -30 0 -91 -7 -135 -15 -101 -18 -115 -18 -115 -1 0 22 14 27 88 35 70
8 163 4 197 -10z m30 -78 c13 -5 -2 -10 -50 -14 -39 -4 -101 -14 -140 -22 -38
-9 -82 -18 -97 -22 -21 -4 -28 -2 -28 10 0 21 15 29 80 43 62 14 205 17 235 5z
m16 -78 c28 -5 16 -9 -73 -24 -91 -16 -166 -36 -240 -64 -14 -6 -18 -2 -18 14
0 26 35 43 135 64 78 17 145 20 196 10z m39 -83 l25 -8 -26 -1 c-50 -2 -255
-59 -307 -85 -62 -31 -62 -31 -62 -6 0 55 276 130 370 100z m-55 -110 c-121
-31 -186 -54 -258 -95 -83 -47 -77 -3 7 49 71 44 187 75 281 75 l80 0 -110
-29z m123 -55 c-3 -3 -38 -14 -79 -25 -94 -24 -209 -71 -261 -105 -24 -16 -50
-25 -66 -23 -25 3 -23 6 35 50 56 41 152 82 238 101 28 7 139 8 133 2z m2 -83
c0 -16 -193 -74 -235 -70 l-40 3 40 18 c83 38 235 69 235 49z"/>
</g>
</svg>
