<?xml version="1.0" standalone="no"?>
<!DOCTYPE svg PUBLIC "-//W3C//DTD SVG 20010904//EN"
 "http://www.w3.org/TR/2001/REC-SVG-20010904/DTD/svg10.dtd">
<svg version="1.0" xmlns="http://www.w3.org/2000/svg"
 width="512.000000pt" height="512.000000pt" viewBox="0 0 512.000000 512.000000"
 preserveAspectRatio="xMidYMid meet">
<metadata>
Created by potrace 1.14, written by Peter Selinger 2001-2017
</metadata>
<g transform="translate(0.000000,512.000000) scale(0.100000,-0.100000)"
fill="#000000" stroke="none">
<path d="M1141 4784 c-52 -8 -106 -21 -122 -29 -15 -8 -35 -15 -43 -15 -24 0
-184 -88 -244 -133 -30 -23 -64 -49 -76 -57 -46 -31 -134 -132 -184 -212 -20
-33 -49 -78 -64 -101 -15 -23 -28 -49 -28 -57 0 -8 -7 -28 -15 -43 -8 -16 -26
-74 -41 -130 -23 -89 -26 -122 -26 -257 0 -135 3 -168 26 -255 34 -132 70
-219 131 -314 38 -58 54 -80 85 -116 160 -181 318 -281 542 -341 l103 -28 585
-4 c400 -2 594 0 613 7 l28 11 -4 577 c-4 602 -11 712 -51 788 -9 17 -16 36
-16 43 0 31 -104 214 -164 288 -154 191 -345 313 -581 370 -91 22 -341 27
-454 8z"/>
<path d="M3575 4775 c-108 -21 -161 -39 -271 -94 -106 -53 -255 -164 -306
-228 -16 -21 -33 -40 -37 -43 -10 -6 -83 -115 -105 -155 -9 -16 -20 -37 -25
-45 -19 -33 -50 -119 -73 -200 -23 -85 -23 -87 -23 -695 l0 -610 585 -3 c563
-2 589 -2 685 19 55 11 119 29 143 40 23 10 47 19 52 19 6 0 50 22 98 49 76
43 141 92 230 173 17 16 98 114 150 183 11 14 97 203 112 245 49 139 53 457 6
608 -24 78 -98 242 -121 269 -5 6 -21 29 -35 49 -32 47 -196 211 -244 244 -20
14 -46 33 -58 43 -11 9 -25 17 -30 17 -5 0 -45 17 -91 38 -105 49 -167 69
-253 82 -95 13 -304 11 -389 -5z"/>
<path d="M1765 2370 c-694 -7 -676 -5 -890 -109 -129 -63 -200 -116 -305 -226
-56 -57 -149 -188 -150 -209 0 -5 -6 -17 -14 -25 -35 -39 -94 -247 -106 -371
-5 -52 -7 -133 -4 -180 6 -86 43 -259 70 -317 8 -17 14 -38 14 -45 0 -8 9 -23
20 -33 11 -10 20 -23 20 -29 0 -19 82 -139 140 -205 73 -83 198 -176 312 -232
176 -87 245 -102 473 -103 225 -1 321 21 493 109 191 99 345 253 447 449 109
211 115 254 115 959 l0 557 -26 10 c-14 6 -26 9 -27 8 -1 -1 -263 -5 -582 -8z
m345 -306 c14 -35 13 -705 -1 -835 -6 -59 -19 -123 -30 -148 -10 -24 -19 -49
-19 -57 0 -7 -7 -19 -15 -28 -8 -8 -20 -27 -25 -42 -30 -78 -209 -256 -300
-298 -19 -8 -42 -20 -50 -25 -147 -92 -535 -85 -659 10 -13 11 -30 19 -37 19
-46 0 -274 214 -274 258 0 5 -7 15 -15 22 -16 14 -65 109 -65 127 0 6 -9 39
-20 73 -28 86 -28 281 -1 366 10 33 21 73 25 90 4 17 22 54 41 83 19 29 35 56
35 60 0 19 113 139 180 192 72 57 225 127 305 139 38 6 71 13 74 16 2 2 193 4
423 4 l418 0 10 -26z"/>
<path d="M2739 2363 c-7 -7 -9 -236 -7 -620 l4 -608 27 -96 c27 -94 46 -137
122 -274 44 -80 206 -248 295 -307 69 -46 210 -118 230 -118 8 0 28 -7 43 -15
40 -20 218 -45 327 -45 109 0 287 25 327 45 15 8 36 15 45 15 22 0 155 70 238
126 79 53 200 176 261 264 53 77 120 214 142 290 50 169 48 477 -3 620 -63
174 -140 300 -259 420 -111 113 -143 133 -394 256 -15 7 -78 22 -140 33 -102
19 -161 21 -680 23 -425 2 -571 0 -578 -9z"/>
</g>
</svg>
