<svg width="1186" height="374" viewBox="0 0 1186 374" fill="none" xmlns="http://www.w3.org/2000/svg">
<path d="M505.173 568.472C504.534 568.824 503.779 568.9 503.083 568.682L407.617 538.781C398.596 535.956 391.172 529.479 387.149 520.924L354.356 451.185C345.833 433.059 354.868 411.541 373.777 404.934L481.278 367.367C493.561 363.075 507.217 366.221 516.385 375.454L554.301 413.644C564.32 423.734 566.944 439.019 560.866 451.874L506.297 567.274C506.058 567.782 505.664 568.2 505.173 568.472V568.472Z" stroke="#F5F4F2"/>
<path d="M749.31 561.535C735.703 560.376 724.134 551.136 719.994 538.123L679.55 410.988C676.4 401.086 678.153 390.276 684.27 381.877V381.877C691.718 371.651 704.405 366.65 716.828 369.043L783.291 381.847C786.72 382.508 790.026 383.696 793.09 385.37L840.378 411.196C856.298 419.89 862.506 439.608 854.439 455.854L810.046 545.257C803.88 557.677 790.748 565.064 776.932 563.888L749.31 561.535Z" stroke="#F5F4F2"/>
<path d="M30.3885 400.077C24.3724 409.993 13.5303 415.955 1.93384 415.723L-140.292 412.883C-160.307 412.483 -175.583 394.859 -173.136 374.99L-160.908 275.708C-159.844 267.068 -155.485 259.173 -148.741 253.67L-110.143 222.176C-106.073 218.854 -100.819 217.345 -95.6061 218.001V218.001C-91.9922 218.455 -88.582 219.928 -85.7735 222.247L19.4642 309.145C26.5975 315.036 31.0022 323.594 31.6497 332.822L35.0256 380.931C35.4963 387.639 33.8763 394.328 30.3885 400.077V400.077Z" stroke="#F5F4F2"/>
<path d="M187.897 226.348C196.06 231.895 201.388 240.736 202.479 250.546L214.594 359.46C216.882 380.028 200.3 397.797 179.623 396.935L66.251 392.209C49.0742 391.493 35.1767 377.987 33.9697 360.838L31.9974 332.816C31.3435 323.525 34.556 314.376 40.8754 307.533L123.897 217.634C135.24 205.352 153.861 203.218 167.689 212.615L187.897 226.348Z" stroke="#F5F4F2"/>
<path d="M248.811 414.43C243.709 414.478 238.725 412.896 234.584 409.914L228.123 405.261C222.612 401.292 219.045 395.172 218.307 388.421L204.165 258.981C202.674 245.336 212.929 233.23 226.634 232.458L317.821 227.321C326.471 226.833 334.709 231.053 339.368 238.356L349.551 254.318C352.645 259.169 353.891 264.972 353.059 270.666L335.145 393.345C333.439 405.031 323.471 413.731 311.662 413.841L248.811 414.43Z" stroke="#F5F4F2"/>
<path d="M340.39 416.588C338.44 417.273 336.275 416.895 334.672 415.592V415.592C333.044 414.269 332.234 412.186 332.54 410.112L351.994 278.194C353.399 268.665 361.609 261.627 371.24 261.694L479.757 262.45C490.186 262.523 498.675 270.86 498.935 281.287L500.553 346.207C500.762 354.585 495.545 362.142 487.637 364.917L340.39 416.588Z" stroke="#F5F4F2"/>
<path d="M591.45 423.708C579.268 427.826 565.803 424.667 556.723 415.561L511.249 369.961C505.144 363.838 501.619 355.607 501.402 346.963L499.638 276.807C499.426 268.38 502.374 260.178 507.902 253.813L512.686 248.305C517.773 242.448 524.721 238.521 532.362 237.184L619.697 221.901C631.502 219.836 643.518 224.181 651.271 233.32L679.425 266.506C683.72 271.568 686.427 277.785 687.209 284.377L695.267 352.342C696.277 360.862 694.006 369.446 688.917 376.353L681.08 386.987C676.976 392.555 671.261 396.73 664.708 398.945L591.45 423.708Z" stroke="#F5F4F2"/>
<path d="M720.801 369.697C706.331 366.942 695.316 355.125 693.581 340.497L688.671 299.081C686.905 284.188 695.173 269.914 708.971 264.036L855.717 201.519C862.903 198.458 871.251 200.851 875.723 207.255V207.255C879.336 212.43 879.683 219.213 876.616 224.729L800.669 361.317C793.59 374.047 779.147 380.805 764.837 378.08L720.801 369.697Z" stroke="#F5F4F2"/>
<path d="M881.32 425.023C873.722 426.462 865.861 425.224 859.074 421.52L818.687 399.479C802.436 390.61 796.481 370.227 805.402 354.004L861.559 251.886C871.864 233.146 896.867 228.76 912.936 242.872L935.308 262.519C944.451 270.549 948.512 282.911 945.911 294.798L923.705 396.291C920.84 409.389 910.43 419.509 897.256 422.004L881.32 425.023Z" stroke="#F5F4F2"/>
<path d="M937.349 430.054C926.702 422.129 921.685 408.703 924.525 395.738L946.276 296.455C949.161 283.287 959.601 273.096 972.834 270.529L1058.72 253.869C1064.95 252.66 1071.4 253.233 1077.32 255.521L1079.63 256.414C1088.18 259.717 1095.02 266.355 1098.58 274.802L1128.02 344.655C1134.67 360.451 1128.44 378.728 1113.52 387.165L999.802 451.467C988.164 458.048 973.739 457.143 963.014 449.16L937.349 430.054Z" stroke="#F5F4F2"/>
<path d="M1149.74 378.096C1143.63 374.417 1138.84 368.899 1136.06 362.333L1103.29 284.92C1097.48 271.179 1101.37 255.249 1112.86 245.736L1154.28 211.461C1167.08 200.874 1185.67 201.16 1198.13 212.135L1296.46 298.725C1305 306.245 1309.17 317.558 1307.57 328.822L1304.61 349.655C1302.33 365.676 1289.01 377.83 1272.85 378.632L1170.22 383.728C1163.51 384.061 1156.86 382.389 1151.12 378.926L1149.74 378.096Z" stroke="#F5F4F2"/>
<path d="M-85.4201 214.284C-88.3567 216.999 -92.3425 218.279 -96.3109 217.781V217.781C-100.952 217.198 -104.964 214.264 -106.927 210.019L-141.076 136.148C-148.319 120.479 -142.58 101.87 -127.77 93.0021L-38.9938 39.8489C-23.0756 30.3181 -2.44959 35.4135 7.19938 51.2604L22.9755 77.1702C31.3349 90.8991 28.8596 108.617 17.0578 119.53L-85.4201 214.284Z" stroke="#F5F4F2"/>
<path d="M141.386 179.176C143.082 189.475 139.921 199.979 132.823 207.632L52.666 294.045C40.5279 307.13 20.303 308.511 6.49889 297.197L-60.0103 242.685C-75.8939 229.667 -76.5772 205.603 -61.4579 191.704L22.4918 114.531C31.7489 106.021 44.9674 103.359 56.797 107.622L115.544 128.793C127.059 132.943 135.427 142.999 137.416 155.076L141.386 179.176Z" stroke="#F5F4F2"/>
<path d="M212.646 233.857C205.208 234.271 197.841 232.215 191.693 228.007L156.253 203.751C148.631 198.535 143.479 190.425 141.994 181.31L136.99 150.575C135.418 140.923 138.107 131.064 144.362 123.546L177.597 83.6049C185.921 73.6017 199.251 69.271 211.865 72.4723L327.078 101.714C344.887 106.234 355.814 124.161 351.672 142.061L337.683 202.512C334.297 217.144 321.656 227.782 306.661 228.617L212.646 233.857Z" stroke="#F5F4F2"/>
<path d="M507.365 253.27C501.902 259.554 493.966 263.137 485.64 263.079L372.964 262.302C361.619 262.224 351.072 256.455 344.887 246.945L339.897 239.272C334.882 231.562 333.229 222.14 335.319 213.183L356.586 122.061C358.398 114.299 362.897 107.428 369.287 102.663L408.431 73.4771C412.451 70.4798 417.427 69.0537 422.425 69.4666V69.4666C429.515 70.0526 435.8 74.2605 439.044 80.5935L511.228 221.55C516.539 231.92 515.01 244.477 507.365 253.27V253.27Z" stroke="#F5F4F2"/>
<path d="M544.41 234.908C529.749 237.501 515.119 230.187 508.395 216.902L449.782 101.086C441.155 84.0389 448.375 63.2357 465.708 55.1984L469.139 53.6071C476.758 50.0745 485.419 49.5069 493.433 52.0151L626.463 93.6494C642.247 98.5894 652.131 114.234 649.814 130.61L640.816 194.205C638.769 208.673 627.649 220.183 613.26 222.728L544.41 234.908Z" stroke="#F5F4F2"/>
<path d="M868.374 173.933C868.298 187.385 860.246 199.509 847.877 204.796L708.165 264.514C694.527 270.343 678.682 266.592 669.105 255.267L647.683 229.935C641.459 222.574 638.677 212.905 640.037 203.362L652.893 113.19C653.901 106.119 657.125 99.549 662.102 94.4255L690.084 65.6196C694.827 60.7368 700.936 57.4014 707.607 56.0507L774.308 42.5479C781.957 40.9996 789.905 42.1478 796.803 45.7974L850.789 74.3619C861.909 80.2454 868.837 91.8223 868.766 104.403L868.374 173.933Z" stroke="#F5F4F2"/>
<path d="M873.426 205.189C869.433 199.467 867.31 192.649 867.35 185.671L867.799 106.08C867.873 92.9662 875.532 81.0812 887.444 75.5958L973.692 35.8762C981.031 32.496 989.418 32.1899 996.984 35.0259V35.0259C1006.17 38.4673 1013.11 46.1421 1015.63 55.6205L1058.73 218.236C1063.75 237.154 1051.68 256.359 1032.46 260.053L966.076 272.814C955.893 274.771 945.375 271.942 937.548 265.139L884.066 218.658C881.972 216.839 880.111 214.769 878.524 212.495L873.426 205.189Z" stroke="#F5F4F2"/>
<path d="M1080.09 256.488C1072.8 253.689 1067.3 247.557 1065.3 240.007L1022.24 77.0427C1016.97 57.1242 1030.62 37.1748 1051.09 34.8572L1114.01 27.7336C1124.66 26.5279 1135.25 30.4494 1142.55 38.3008L1198.69 98.7166C1208.24 108.992 1210.45 124.102 1204.23 136.677L1179.6 186.475C1177.49 190.739 1174.51 194.509 1170.84 197.538L1104.29 252.535C1097.53 258.122 1088.28 259.633 1080.09 256.488V256.488Z" stroke="#F5F4F2"/>
<path d="M1195.76 210.448C1184.3 200.357 1181.03 183.828 1187.8 170.135L1205.91 133.484C1211.21 122.764 1221.78 115.644 1233.7 114.766L1289.95 110.623C1305.62 109.469 1320.01 119.274 1324.68 134.277L1350.43 217.124C1353.18 225.972 1352.18 235.562 1347.65 243.647L1330.38 274.5C1319.88 293.263 1294.74 297.561 1278.6 283.354L1195.76 210.448Z" stroke="#F5F4F2"/>
<path d="M149.309 117.435C140.19 128.409 125.158 132.467 111.755 127.575L49.1768 104.732C41.9489 102.094 35.8387 97.0663 31.8576 90.4821L-4.98615 29.548C-7.87865 24.7642 -9.53838 19.3372 -9.81644 13.7539L-13.0146 -50.465C-13.3988 -58.1788 -9.75121 -65.5392 -3.38048 -69.9055V-69.9055C0.985188 -72.8977 6.27523 -74.2339 11.5381 -73.6738L143.759 -59.6028C150.811 -58.8523 157.448 -55.9007 162.729 -51.1664L180.483 -35.2493C187.716 -28.7645 191.806 -19.4788 191.709 -9.7647L191.054 55.3371C190.976 63.1046 188.223 70.6078 183.258 76.582L149.309 117.435Z" stroke="#F5F4F2"/>
<path d="M372.417 100.627C364.27 106.711 353.815 108.801 343.955 106.316L216.058 74.0788C200.932 70.266 190.385 56.5886 190.543 40.9895L190.995 -3.62944C191.125 -16.4711 198.527 -28.1276 210.095 -33.7061L299.235 -76.6944C312.347 -83.0175 328.034 -80.2277 338.162 -69.7719L352.341 -55.1336C354.808 -52.5864 356.859 -49.6665 358.418 -46.4812L402.578 43.7628C409.715 58.3482 405.462 75.9483 392.452 85.6647L372.417 100.627Z" stroke="#F5F4F2"/>
<path d="M427.769 69.9195C419.643 69.2472 412.47 64.3498 408.885 57.0267L372.04 -18.2419C363.367 -35.9587 371.66 -57.3059 390.019 -64.5211L529.995 -119.534C536.639 -122.145 544.208 -120.129 548.672 -114.559V-114.559C552.581 -109.681 553.356 -102.998 550.667 -97.3562L486.305 37.697C482.9 44.8409 477.095 50.5623 469.902 53.8625L439.332 67.8892C435.716 69.5483 431.734 70.2476 427.769 69.9195V69.9195Z" stroke="#F5F4F2"/>
<path d="M668.722 87.3672C659.857 96.5131 646.599 99.8926 634.437 96.107L518.935 60.156C499.324 54.0518 489.657 32.0005 498.457 13.4416L543.823 -82.2348C550.537 -96.3946 566.11 -104.075 581.432 -100.784L589.641 -99.0198C598.763 -97.0601 606.668 -91.4141 611.48 -83.4213L683.437 36.0942C691.339 49.219 689.417 66.0189 678.753 77.0191L668.722 87.3672Z" stroke="#F5F4F2"/>
<path d="M719.984 51.9897C706.03 54.8015 691.811 48.5619 684.433 36.3888L621.157 -68.0066C611.409 -84.0891 616.676 -105.036 632.872 -114.595L692.141 -149.576C701.502 -155.102 712.951 -155.783 722.901 -151.407L770.367 -130.533C783.068 -124.947 791.06 -112.161 790.517 -98.2965L786.183 12.3222C785.573 27.8946 774.386 41.0272 759.108 44.1057L719.984 51.9897Z" stroke="#F5F4F2"/>
<path d="M804.796 51.0163C793.334 44.938 786.368 32.8313 786.872 19.8676L791.634 -102.503C792.063 -113.521 797.844 -123.636 807.119 -129.598L813.93 -133.976C824.175 -140.562 837.172 -141.121 847.945 -135.439L960.125 -76.2744C970.256 -70.9313 976.988 -60.8176 978.008 -49.4096L983.054 7.04693C984.323 21.2464 976.539 34.7134 963.602 40.7013L883.622 77.7185C874.043 82.1522 862.941 81.8517 853.615 76.9061L804.796 51.0163Z" stroke="#F5F4F2"/>
<path d="M1005.14 37.4039C993.456 33.0139 985.319 22.3187 984.205 9.88634L978.069 -58.584C977.503 -64.8945 978.724 -71.2367 981.592 -76.8861L1005.27 -123.531C1012.09 -136.967 1026.99 -144.259 1041.79 -141.402L1199.26 -111.003C1199.65 -110.928 1199.97 -110.642 1200.09 -110.26V-110.26C1200.17 -109.992 1200.15 -109.702 1200.02 -109.451L1139.56 10.4073C1134.43 20.5756 1124.52 27.4737 1113.2 28.754L1020.22 39.2738C1015.12 39.8513 1009.95 39.2104 1005.14 37.4039V37.4039Z" stroke="#F5F4F2"/>
<path d="M1146.25 43.9742C1136.57 33.6111 1134.4 18.3035 1140.81 5.65359L1184.76 -81.0724C1192.87 -97.068 1212.06 -103.939 1228.48 -96.7211L1267.65 -79.4987C1274.57 -76.4551 1280.27 -71.1765 1283.83 -64.5083L1343.41 46.9161C1350.2 59.5995 1348.2 75.1867 1338.44 85.7529L1325.94 99.2951C1320.12 105.589 1312.14 109.439 1303.59 110.064L1230.23 115.435C1220.04 116.181 1210.06 112.275 1203.09 104.809L1146.25 43.9742Z" stroke="#F5F4F2"/>
</svg>
